<svg width="20" height="21" viewBox="0 0 20 21" fill="none" xmlns="http://www.w3.org/2000/svg">
<g id="Arrow - Down Square">
<path id="Union" fill-rule="evenodd" clip-rule="evenodd" d="M18.3333 13.9V7.09171C18.3333 4.15004 16.4408 2.16671 13.6166 2.16671H6.3916C3.5666 2.16671 1.6666 4.15004 1.6666 7.09171V13.9C1.6666 16.85 3.5666 18.8334 6.3916 18.8334H13.6166C16.4408 18.8334 18.3333 16.85 18.3333 13.9ZM9.37493 12.3917V7.10004C9.37493 6.75004 9.65826 6.47504 9.99993 6.47504C10.3499 6.47504 10.6249 6.75004 10.6249 7.10004V12.3917L12.6833 10.325C12.7999 10.2084 12.9666 10.1417 13.1249 10.1417C13.2824 10.1417 13.4416 10.2084 13.5666 10.325C13.8083 10.5667 13.8083 10.9667 13.5666 11.2084L10.4416 14.35C10.2083 14.5834 9.7916 14.5834 9.55826 14.35L6.43326 11.2084C6.1916 10.9667 6.1916 10.5667 6.43326 10.325C6.68326 10.0834 7.07493 10.0834 7.32493 10.325L9.37493 12.3917Z" fill="white"/>
</g>
</svg>
