<svg width="24" height="25" viewBox="0 0 24 25" fill="none" xmlns="http://www.w3.org/2000/svg">
<g id="console labs logo" clip-path="url(#clip0_1_7222)">
<path id="Union" fill-rule="evenodd" clip-rule="evenodd" d="M20.393 6.26748C21.059 5.60151 22.1384 5.60151 22.7999 6.26301L24 7.46087L22.5876 8.87103L21.6043 7.88772L20.4288 9.07217C22.2703 13.0323 21.5082 17.7857 18.4867 20.9792C16.4955 23.0844 13.8025 24.2756 10.9062 24.3359C10.8303 24.3382 10.7544 24.3382 10.6785 24.3382H10.6783C7.86686 24.3382 5.21637 23.2632 3.19386 21.2943C1.19817 19.3545 0.065114 16.7018 0.00253912 13.8301C-0.0578009 10.9583 0.959041 8.26093 2.86757 6.23396C6.08794 2.81693 11.1923 1.89619 15.3893 3.94104L16.5245 2.81246L15.5412 1.82915L16.9514 0.416748L18.1448 1.61014C18.8063 2.27164 18.8063 3.35105 18.1448 4.01256L16.3502 5.79593C15.9882 6.15574 15.4228 6.23172 14.978 5.98366L14.7345 5.84733C11.2794 4.03714 6.99528 4.75675 4.31574 7.60166C1.11771 10.9986 1.23839 16.6124 4.58168 19.8641C6.27344 21.5089 8.50602 22.3872 10.8615 22.3402C13.2192 22.2911 15.4116 21.3212 17.0318 19.6071C19.5482 16.9476 20.1405 12.9607 18.5046 9.68674L18.366 9.40515C18.1515 8.96489 18.2386 8.43748 18.5828 8.09109L20.393 6.26748ZM12.6204 12.7976C13.5523 11.7674 14.8105 11.6847 15.8787 12.5719C17.1235 13.6066 17.4431 15.0727 16.6788 16.5499C15.4139 18.9992 13.3534 20.206 10.6046 20.3446C7.78648 20.1859 5.69022 18.8964 4.47224 16.3063C3.77498 14.8201 4.36274 13.1038 5.78632 12.2836C6.74058 11.7339 7.87363 11.9082 8.59771 12.7395C9.1229 13.3429 9.75758 13.7117 10.5644 13.734C11.3979 13.7586 12.0661 13.41 12.6204 12.7976ZM7.85941 15.9604C7.9801 15.9588 8.10047 15.9572 8.22003 15.9532C8.54855 15.942 8.75862 15.7521 8.76532 15.4615C8.77426 15.1598 8.55749 14.9498 8.21556 14.9408C8.079 14.9379 7.94244 14.9388 7.79764 14.9398C7.72206 14.9403 7.64424 14.9408 7.56299 14.9408C7.56299 14.8641 7.56338 14.7903 7.56375 14.7185C7.56465 14.5454 7.5655 14.3839 7.56076 14.2212C7.55182 13.8927 7.35963 13.6826 7.0691 13.6737C6.7674 13.6648 6.55733 13.8815 6.54839 14.2235C6.54364 14.3848 6.54449 14.5472 6.5454 14.7195C6.54577 14.7907 6.54615 14.8635 6.54615 14.9386H6.23775C6.20773 14.9386 6.17772 14.9382 6.14771 14.9379C6.07268 14.937 5.99766 14.936 5.92264 14.9408C5.62094 14.9565 5.41757 15.1554 5.40863 15.4325C5.39969 15.7185 5.612 15.9376 5.92711 15.951C6.05808 15.9571 6.18799 15.9559 6.32929 15.9545C6.39293 15.9538 6.45888 15.9532 6.52828 15.9532C6.54685 16.0607 6.54629 16.1804 6.54572 16.2996C6.54405 16.6534 6.5424 17.0019 7.04228 17.0103C7.57029 17.0187 7.56603 16.6566 7.56201 16.3142C7.5607 16.203 7.55942 16.0938 7.5764 16.0001C7.58772 15.9907 7.59546 15.9829 7.60129 15.9769C7.60928 15.9689 7.6137 15.9644 7.61886 15.9644C7.69909 15.9626 7.77932 15.9615 7.85941 15.9604ZM12.5131 15.3833C12.5131 15.6917 12.7634 15.942 13.0718 15.942C13.3802 15.942 13.6305 15.6917 13.6305 15.3833C13.6305 15.0749 13.3802 14.8246 13.0718 14.8246C12.7634 14.8246 12.5131 15.0749 12.5131 15.3833ZM13.6529 16.5231C13.6529 16.8315 13.9032 17.0818 14.2116 17.0818C14.52 17.0818 14.7703 16.8315 14.7703 16.5231C14.7703 16.2147 14.52 15.9644 14.2116 15.9644C13.9032 15.9644 13.6529 16.2147 13.6529 16.5231ZM13.6529 14.181C13.6529 14.4894 13.9032 14.7397 14.2116 14.7397C14.52 14.7397 14.7703 14.4894 14.7703 14.181C14.7703 13.8726 14.52 13.6223 14.2116 13.6223C13.9032 13.6223 13.6529 13.8726 13.6529 14.181ZM14.7926 15.3833C14.7926 15.6917 15.0429 15.942 15.3513 15.942C15.6597 15.942 15.91 15.6917 15.91 15.3833C15.91 15.0749 15.6597 14.8246 15.3513 14.8246C15.0429 14.8246 14.7926 15.0749 14.7926 15.3833Z" fill="#161418"/>
</g>
<defs>
<clipPath id="clip0_1_7222">
<rect width="24" height="23.9214" fill="white" transform="translate(0 0.416748)"/>
</clipPath>
</defs>
</svg>
