<svg width="22" height="22" viewBox="0 0 22 22" fill="none" xmlns="http://www.w3.org/2000/svg">
<g id="Group">
<path id="Vector" d="M17.12 21.8H4.88004C2.29524 21.8 0.200043 19.7048 0.200043 17.12V4.88005C0.200043 2.29525 2.29524 0.200047 4.88004 0.200047H17.12C19.7048 0.200047 21.8 2.29525 21.8 4.88005V17.12C21.8 19.7048 19.7048 21.8 17.12 21.8Z" fill="#00B900"/>
<path id="Vector_2" d="M18.8291 10.0503C18.8291 6.53132 15.3011 3.66824 10.9649 3.66824C6.62874 3.66824 3.09894 6.53132 3.09894 10.0503C3.09894 13.2052 5.89668 15.8472 9.67614 16.3467C9.93228 16.402 10.2809 16.5159 10.3691 16.7346C10.4483 16.9333 10.421 17.2449 10.3943 17.4456L10.2822 18.1188C10.248 18.3175 10.1238 18.8964 10.9633 18.5427C11.8028 18.189 15.4925 15.8758 17.1424 13.9767H17.142C18.2818 12.7269 18.8277 11.4567 18.8277 10.0501" fill="white"/>
<g id="Group_2">
<path id="Vector_3" d="M9.36708 8.34979H8.81538C8.79527 8.34977 8.77536 8.35371 8.75677 8.36139C8.73819 8.36907 8.7213 8.38033 8.70708 8.39454C8.69285 8.40875 8.68157 8.42563 8.67387 8.4442C8.66617 8.46278 8.6622 8.48268 8.6622 8.50279V11.9296C8.6623 11.9702 8.67848 12.009 8.7072 12.0376C8.73593 12.0663 8.77483 12.0823 8.81538 12.0823H9.36708C9.40763 12.0823 9.44654 12.0663 9.47526 12.0376C9.50398 12.009 9.52017 11.9702 9.52026 11.9296V8.50297C9.52026 8.48287 9.5163 8.46296 9.5086 8.44438C9.5009 8.42581 9.48961 8.40893 9.47538 8.39472C9.46116 8.38051 9.44427 8.36925 9.42569 8.36157C9.4071 8.35389 9.38719 8.34995 9.36708 8.34997M13.164 8.34979H12.6125C12.5924 8.34977 12.5725 8.35371 12.5539 8.36139C12.5353 8.36907 12.5184 8.38033 12.5042 8.39454C12.49 8.40875 12.4787 8.42563 12.471 8.4442C12.4633 8.46278 12.4593 8.48268 12.4593 8.50279V10.5368L10.8888 8.41603C10.8851 8.41065 10.8812 8.40548 10.8769 8.40055L10.876 8.39947L10.864 8.38741L10.8557 8.38057C10.8544 8.37949 10.8532 8.37842 10.8517 8.37752L10.8438 8.37212C10.8424 8.37104 10.8407 8.37031 10.8391 8.36941L10.831 8.36473L10.8262 8.36239L10.8172 8.35879L10.8123 8.35699C10.8092 8.35573 10.8062 8.35483 10.8033 8.35393L10.7979 8.35249L10.7893 8.35069C10.7871 8.35015 10.7848 8.34997 10.7828 8.34979L10.7747 8.34871L10.7668 8.34817L10.7614 8.34799H10.2098C10.1897 8.34797 10.1698 8.35191 10.1512 8.35959C10.1327 8.36726 10.1158 8.37853 10.1015 8.39274C10.0873 8.40695 10.076 8.42383 10.0683 8.4424C10.0606 8.46097 10.0567 8.48088 10.0567 8.50099V11.9296C10.0568 11.9702 10.0729 12.009 10.1017 12.0376C10.1304 12.0663 10.1693 12.0823 10.2098 12.0823H10.7614C10.7815 12.0823 10.8014 12.0784 10.8199 12.0708C10.8385 12.0631 10.8554 12.0519 10.8697 12.0377C10.8839 12.0235 10.8952 12.0067 10.9029 11.9882C10.9107 11.9696 10.9147 11.9497 10.9147 11.9296V9.89438L12.4868 12.0178C12.4975 12.0327 12.5107 12.0455 12.5259 12.0556L12.5367 12.0625L12.541 12.065L12.5482 12.0686L12.5554 12.0718L12.5599 12.0736L12.5707 12.0769C12.5851 12.0808 12.5984 12.0823 12.6121 12.0823H13.1636C13.2042 12.0823 13.2431 12.0663 13.2718 12.0376C13.3005 12.009 13.3167 11.9702 13.3168 11.9296V8.50297C13.3168 8.48287 13.3129 8.46296 13.3052 8.44438C13.2975 8.42581 13.2862 8.40893 13.2719 8.39472C13.2577 8.38051 13.2408 8.36925 13.2222 8.36157C13.2037 8.35389 13.1837 8.34995 13.1636 8.34997" fill="#00B900"/>
<path id="Vector_4" d="M8.03725 11.224H6.53839V8.50238C6.53842 8.48227 6.53448 8.46236 6.5268 8.44378C6.51912 8.42519 6.50785 8.4083 6.49364 8.39408C6.47943 8.37985 6.46256 8.36856 6.44398 8.36086C6.42541 8.35316 6.4055 8.3492 6.38539 8.3492H5.83369C5.81357 8.34918 5.79364 8.35312 5.77504 8.36081C5.75645 8.3685 5.73955 8.37978 5.72533 8.39401C5.7111 8.40824 5.69981 8.42514 5.69212 8.44373C5.68443 8.46233 5.68049 8.48226 5.68051 8.50238V11.9289C5.68041 11.9684 5.69579 12.0064 5.72335 12.0347L5.72767 12.0392C5.75609 12.0665 5.79393 12.0818 5.83333 12.0819H8.03725C8.05736 12.0819 8.07727 12.0779 8.09585 12.0702C8.11442 12.0625 8.13129 12.0512 8.1455 12.037C8.15971 12.0228 8.17098 12.0059 8.17866 11.9873C8.18634 11.9687 8.19028 11.9488 8.19025 11.9287V11.377C8.19028 11.3569 8.18634 11.337 8.17866 11.3184C8.17098 11.2998 8.15971 11.2829 8.1455 11.2687C8.13129 11.2545 8.11442 11.2432 8.09585 11.2355C8.07727 11.2278 8.05736 11.2238 8.03725 11.2238M16.2102 9.2078C16.2303 9.2078 16.2502 9.20384 16.2687 9.19614C16.2873 9.18844 16.3042 9.17715 16.3184 9.16292C16.3326 9.1487 16.3439 9.13181 16.3516 9.11323C16.3592 9.09464 16.3632 9.07473 16.3632 9.05462V8.50292C16.3632 8.48281 16.3592 8.4629 16.3516 8.44431C16.3439 8.42573 16.3326 8.40884 16.3184 8.39462C16.3042 8.38039 16.2873 8.36911 16.2687 8.36141C16.2502 8.3537 16.2303 8.34974 16.2102 8.34974H14.0062C13.9661 8.34992 13.9275 8.36537 13.8982 8.39294C13.8955 8.39546 13.8946 8.39654 13.8941 8.39726C13.8667 8.42555 13.8515 8.46339 13.8516 8.50274V11.9296C13.8515 11.9691 13.8669 12.0071 13.8945 12.0354L13.8986 12.0396C13.9261 12.066 13.9634 12.0824 14.0044 12.0824H16.2084C16.2489 12.0824 16.2878 12.0663 16.3165 12.0376C16.3452 12.0089 16.3614 11.97 16.3614 11.9294V11.3775C16.3614 11.3574 16.3574 11.3375 16.3498 11.3189C16.3421 11.3003 16.3308 11.2834 16.3166 11.2692C16.3024 11.255 16.2855 11.2437 16.2669 11.236C16.2484 11.2283 16.2285 11.2243 16.2084 11.2243H14.7097V10.6451H16.2084C16.2285 10.6451 16.2484 10.6411 16.2669 10.6334C16.2855 10.6257 16.3024 10.6144 16.3166 10.6002C16.3308 10.586 16.3421 10.5691 16.3498 10.5505C16.3574 10.5319 16.3614 10.512 16.3614 10.4919V9.9404C16.3614 9.92028 16.3575 9.90034 16.3498 9.88174C16.3421 9.86313 16.3309 9.84623 16.3167 9.83198C16.3025 9.81773 16.2856 9.80643 16.267 9.79872C16.2484 9.79101 16.2285 9.78704 16.2084 9.78704H14.7097V9.20798H16.2084L16.2102 9.2078Z" fill="#00B900"/>
</g>
</g>
</svg>
